<svg width="172" height="32" viewBox="0 0 172 32" fill="none" xmlns="http://www.w3.org/2000/svg">
<g clip-path="url(#clip0_4122_5675)">
<path d="M12.0105 26.4474C8.71544 29.7426 3.13482 29.7294 1.5763 25.3378C1.27116 24.478 1.0272 23.5939 0.847758 22.6919C0.115121 19.0086 0.491137 15.1908 1.92826 11.7213C3.36538 8.25181 5.79906 5.28636 8.92154 3.19998C12.0441 1.1136 15.7151 -1.60866e-07 19.4705 0C23.2259 1.60866e-07 26.8969 1.1136 30.0194 3.19998C33.1419 5.28636 35.5755 8.25181 37.0127 11.7214C38.4498 15.1908 38.8258 19.0086 38.0932 22.6919C37.9138 23.5939 37.6698 24.478 37.3646 25.3378C35.8061 29.7294 30.2255 29.7426 26.9304 26.4474L21.8439 21.361C21.3579 20.875 21.4081 20.0736 21.5422 19.3996C21.6237 18.9899 21.5818 18.5652 21.4219 18.1792C21.2621 17.7932 20.9914 17.4633 20.644 17.2312C20.2966 16.9992 19.8883 16.8753 19.4705 16.8753C19.0527 16.8753 18.6443 16.9992 18.297 17.2312C17.9495 17.4633 17.6788 17.7932 17.5189 18.1792C17.359 18.5652 17.3172 18.9899 17.3988 19.3996C17.5328 20.0736 17.5829 20.875 17.097 21.361L12.0105 26.4474Z" fill="url(#paint0_linear_4122_5675)"/>
<path d="M53.906 21.8878H59.0098V24.8955H50.0098V8.90039H53.906V21.8878Z" fill="#3A3B7B"/>
<path d="M65.9718 25.0786C64.7262 25.0786 63.6021 24.8128 62.5995 24.2812C61.6123 23.7495 60.8299 22.99 60.2527 22.0026C59.6907 21.0153 59.4097 19.8609 59.4097 18.5393C59.4097 17.233 59.6982 16.0861 60.2754 15.0987C60.8528 14.0962 61.6426 13.3291 62.6451 12.7975C63.6477 12.2658 64.7718 12 66.0173 12C67.2629 12 68.387 12.2658 69.3895 12.7975C70.3921 13.3291 71.1819 14.0962 71.7591 15.0987C72.3363 16.0861 72.625 17.233 72.625 18.5393C72.625 19.8456 72.3287 21.0001 71.7364 22.0026C71.1592 22.99 70.3617 23.7495 69.3439 24.2812C68.3414 24.8128 67.2173 25.0786 65.9718 25.0786ZM65.9718 21.7064C66.716 21.7064 67.3464 21.433 67.863 20.8862C68.3946 20.3393 68.6604 19.5571 68.6604 18.5393C68.6604 17.5215 68.4021 16.7393 67.8857 16.1924C67.3844 15.6456 66.7616 15.3721 66.0173 15.3721C65.2578 15.3721 64.6274 15.6456 64.1261 16.1924C63.6248 16.7241 63.3742 17.5063 63.3742 18.5393C63.3742 19.5571 63.6173 20.3393 64.1034 20.8862C64.6047 21.433 65.2275 21.7064 65.9718 21.7064Z" fill="#3A3B7B"/>
<path d="M78.839 12C79.7352 12 80.5175 12.1823 81.1859 12.5469C81.8694 12.9113 82.3935 13.3899 82.7581 13.9822V12.1823H86.6542V24.8735C86.6542 26.0431 86.4189 27.0989 85.9479 28.0406C85.4922 28.9976 84.7859 29.7571 83.829 30.3191C82.8872 30.8812 81.7099 31.1623 80.2973 31.1623C78.4137 31.1623 76.8871 30.7142 75.7174 29.8179C74.5479 28.9368 73.8794 27.7368 73.7123 26.2178H77.563C77.6845 26.7039 77.9732 27.0837 78.4289 27.3571C78.8845 27.6457 79.4466 27.79 80.115 27.79C80.9201 27.79 81.558 27.5545 82.0289 27.0837C82.515 26.628 82.7581 25.8913 82.7581 24.8735V23.0735C82.3783 23.6659 81.8542 24.1521 81.1859 24.5318C80.5175 24.8963 79.7352 25.0786 78.839 25.0786C77.7909 25.0786 76.8415 24.8128 75.9908 24.2812C75.1402 23.7343 74.4642 22.9672 73.963 21.9798C73.477 20.9773 73.2339 19.8229 73.2339 18.5165C73.2339 17.2102 73.477 16.0633 73.963 15.076C74.4642 14.0886 75.1402 13.3291 75.9908 12.7975C76.8415 12.2658 77.7909 12 78.839 12ZM82.7581 18.5393C82.7581 17.5671 82.4846 16.8 81.9378 16.238C81.4061 15.676 80.7529 15.395 79.9783 15.395C79.2035 15.395 78.5428 15.676 77.9959 16.238C77.4643 16.7849 77.1985 17.5444 77.1985 18.5165C77.1985 19.4887 77.4643 20.2634 77.9959 20.8406C78.5428 21.4026 79.2035 21.6836 79.9783 21.6836C80.7529 21.6836 81.4061 21.4026 81.9378 20.8406C82.4846 20.2785 82.7581 19.5115 82.7581 18.5393Z" fill="#3A3B7B"/>
<path d="M94.5767 25.0786C93.3312 25.0786 92.2071 24.8128 91.2046 24.2812C90.2172 23.7495 89.4349 22.99 88.8577 22.0026C88.2957 21.0153 88.0146 19.8609 88.0146 18.5393C88.0146 17.233 88.3032 16.0861 88.8805 15.0987C89.4577 14.0962 90.2476 13.3291 91.2501 12.7975C92.2527 12.2658 93.3768 12 94.6223 12C95.8679 12 96.992 12.2658 97.9945 12.7975C98.9971 13.3291 99.7869 14.0962 100.364 15.0987C100.941 16.0861 101.23 17.233 101.23 18.5393C101.23 19.8456 100.934 21.0001 100.341 22.0026C99.7642 22.99 98.9667 23.7495 97.9489 24.2812C96.9464 24.8128 95.8223 25.0786 94.5767 25.0786ZM94.5767 21.7064C95.321 21.7064 95.9514 21.433 96.4679 20.8862C96.9996 20.3393 97.2654 19.5571 97.2654 18.5393C97.2654 17.5215 97.0071 16.7393 96.4907 16.1924C95.9894 15.6456 95.3666 15.3721 94.6223 15.3721C93.8628 15.3721 93.2324 15.6456 92.7311 16.1924C92.2299 16.7241 91.9792 17.5063 91.9792 18.5393C91.9792 19.5571 92.2223 20.3393 92.7084 20.8862C93.2097 21.433 93.8325 21.7064 94.5767 21.7064Z" fill="#3A3B7B"/>
<path d="M104.573 10.8617C103.89 10.8617 103.328 10.6642 102.887 10.2693C102.462 9.85918 102.249 9.35791 102.249 8.7655C102.249 8.1579 102.462 7.65662 102.887 7.26168C103.328 6.85155 103.89 6.64648 104.573 6.64648C105.241 6.64648 105.788 6.85155 106.214 7.26168C106.654 7.65662 106.874 8.1579 106.874 8.7655C106.874 9.35791 106.654 9.85918 106.214 10.2693C105.788 10.6642 105.241 10.8617 104.573 10.8617ZM106.51 12.1833V24.8973H102.614V12.1833H106.51Z" fill="#3A3B7B"/>
<path d="M112.546 13.9822C112.925 13.3899 113.45 12.9113 114.118 12.5469C114.787 12.1823 115.569 12 116.465 12C117.514 12 118.463 12.2658 119.313 12.7975C120.164 13.3291 120.833 14.0886 121.318 15.076C121.819 16.0633 122.071 17.2102 122.071 18.5165C122.071 19.8229 121.819 20.9773 121.318 21.9798C120.833 22.9672 120.164 23.7343 119.313 24.2812C118.463 24.8128 117.514 25.0786 116.465 25.0786C115.584 25.0786 114.802 24.8963 114.118 24.5318C113.45 24.1672 112.925 23.6963 112.546 23.1191V30.9571H108.65V12.1823H112.546V13.9822ZM118.106 18.5165C118.106 17.5444 117.832 16.7849 117.285 16.238C116.753 15.676 116.093 15.395 115.303 15.395C114.529 15.395 113.868 15.676 113.32 16.238C112.79 16.8 112.524 17.5671 112.524 18.5393C112.524 19.5115 112.79 20.2785 113.32 20.8406C113.868 21.4026 114.529 21.6836 115.303 21.6836C116.078 21.6836 116.739 21.4026 117.285 20.8406C117.832 20.2634 118.106 19.4887 118.106 18.5165Z" fill="#3A3B7B"/>
<path d="M128.603 25.0786C127.494 25.0786 126.507 24.8887 125.64 24.509C124.775 24.1292 124.091 23.6128 123.59 22.9596C123.089 22.2912 122.808 21.5469 122.747 20.7266H126.598C126.643 21.1671 126.849 21.5241 127.213 21.7975C127.578 22.071 128.026 22.2077 128.558 22.2077C129.043 22.2077 129.415 22.1165 129.673 21.9342C129.947 21.7368 130.084 21.4861 130.084 21.1823C130.084 20.8178 129.894 20.5519 129.515 20.3849C129.135 20.2026 128.519 20.0052 127.668 19.7924C126.757 19.5798 125.998 19.3596 125.39 19.1317C124.783 18.8887 124.259 18.5165 123.819 18.0152C123.377 17.4988 123.158 16.8076 123.158 15.9418C123.158 15.2127 123.355 14.5519 123.75 13.9595C124.159 13.3519 124.752 12.8734 125.527 12.524C126.317 12.1747 127.251 12 128.329 12C129.924 12 131.177 12.3949 132.089 13.1848C133.016 13.9747 133.548 15.0228 133.684 16.3292H130.084C130.023 15.8887 129.826 15.5393 129.491 15.281C129.172 15.0228 128.748 14.8937 128.216 14.8937C127.76 14.8937 127.41 14.9848 127.167 15.1671C126.925 15.3342 126.803 15.5697 126.803 15.8734C126.803 16.238 126.993 16.5114 127.373 16.6937C127.768 16.876 128.375 17.0583 129.196 17.2405C130.137 17.4836 130.904 17.7267 131.496 17.9697C132.089 18.1975 132.605 18.5772 133.046 19.109C133.501 19.6254 133.737 20.3241 133.753 21.2052C133.753 21.9495 133.54 22.6178 133.114 23.2103C132.705 23.7875 132.104 24.2432 131.314 24.5773C130.54 24.9116 129.636 25.0786 128.603 25.0786Z" fill="#3A3B7B"/>
<path d="M148.008 12.1816V24.8957H144.111V23.164C143.716 23.726 143.177 24.1818 142.494 24.5311C141.825 24.8653 141.081 25.0324 140.26 25.0324C139.288 25.0324 138.43 24.8198 137.686 24.3944C136.941 23.9539 136.364 23.3235 135.955 22.5033C135.544 21.683 135.339 20.7185 135.339 19.6095V12.1816H139.212V19.0855C139.212 19.9361 139.433 20.5969 139.873 21.0678C140.313 21.5387 140.906 21.7741 141.651 21.7741C142.41 21.7741 143.01 21.5387 143.45 21.0678C143.891 20.5969 144.111 19.9361 144.111 19.0855V12.1816H148.008Z" fill="#3A3B7B"/>
<path d="M166.345 12.0449C167.925 12.0449 169.178 12.5234 170.105 13.4804C171.046 14.4373 171.517 15.7664 171.517 17.4677V24.8957H167.644V17.9918C167.644 17.1715 167.424 16.5411 166.983 16.1006C166.557 15.6449 165.966 15.4171 165.206 15.4171C164.446 15.4171 163.846 15.6449 163.406 16.1006C162.981 16.5411 162.768 17.1715 162.768 17.9918V24.8957H158.894V17.9918C158.894 17.1715 158.674 16.5411 158.234 16.1006C157.808 15.6449 157.216 15.4171 156.456 15.4171C155.697 15.4171 155.097 15.6449 154.657 16.1006C154.231 16.5411 154.019 17.1715 154.019 17.9918V24.8957H150.123V12.1816H154.019V13.7766C154.414 13.2449 154.93 12.8272 155.568 12.5234C156.206 12.2044 156.928 12.0449 157.732 12.0449C158.69 12.0449 159.541 12.2499 160.284 12.6601C161.043 13.0702 161.636 13.6551 162.062 14.4146C162.502 13.7158 163.102 13.1462 163.862 12.7057C164.621 12.2652 165.449 12.0449 166.345 12.0449Z" fill="#3A3B7B"/>
</g>
<defs>
<linearGradient id="paint0_linear_4122_5675" x1="36.7296" y1="9.49378" x2="3.02677" y2="9.49378" gradientUnits="userSpaceOnUse">
<stop stop-color="#64C2DB"/>
<stop offset="0.510417" stop-color="#7476ED"/>
<stop offset="1" stop-color="#E56F8C"/>
</linearGradient>
<clipPath id="clip0_4122_5675">
<rect width="171.034" height="32" fill="white" transform="translate(0.48291)"/>
</clipPath>
</defs>
</svg>
