<svg width="142" height="32" viewBox="0 0 142 32" fill="none" xmlns="http://www.w3.org/2000/svg">
<g clip-path="url(#clip0_4122_5659)">
<path fill-rule="evenodd" clip-rule="evenodd" d="M12.4829 22.4C11.422 22.4 10.4046 21.9786 9.65448 21.2284C8.90434 20.4783 8.48291 19.4609 8.48291 18.4V0H0.48291V18.4C0.48291 25.0272 5.85571 30.4 12.4829 30.4H21.2829V22.4H12.4829ZM36.4829 8C35.5374 8 34.6011 8.18623 33.7276 8.54807C32.854 8.9099 32.0603 9.44025 31.3917 10.1088C30.7232 10.7774 30.1928 11.5711 29.831 12.4447C29.4691 13.3182 29.2829 14.2545 29.2829 15.2C29.2829 16.1455 29.4691 17.0818 29.831 17.9553C30.1928 18.8289 30.7232 19.6226 31.3917 20.2912C32.0603 20.9598 32.854 21.4901 33.7276 21.8519C34.6011 22.2138 35.5374 22.4 36.4829 22.4C38.3925 22.4 40.2238 21.6414 41.5741 20.2912C42.9243 18.9409 43.6829 17.1096 43.6829 15.2C43.6829 13.2904 42.9243 11.4591 41.5741 10.1088C40.2238 8.75857 38.3925 8 36.4829 8ZM21.2829 15.2C21.2829 6.8056 28.0885 0 36.4829 0C44.8773 0 51.6829 6.8056 51.6829 15.2C51.6829 23.5944 44.8773 30.4 36.4829 30.4C28.0885 30.4 21.2829 23.5944 21.2829 15.2ZM122.883 8C120.973 8 119.142 8.75857 117.792 10.1088C116.441 11.4591 115.683 13.2904 115.683 15.2C115.683 17.1096 116.441 18.9409 117.792 20.2912C119.142 21.6414 120.973 22.4 122.883 22.4C124.792 22.4 126.624 21.6414 127.974 20.2912C129.324 18.9409 130.083 17.1096 130.083 15.2C130.083 13.2904 129.324 11.4591 127.974 10.1088C126.624 8.75857 124.792 8 122.883 8ZM107.683 15.2C107.683 6.8056 114.489 0 122.883 0C131.277 0 138.083 6.8056 138.083 15.2C138.083 23.5944 131.277 30.4 122.883 30.4C114.489 30.4 107.683 23.5944 107.683 15.2ZM68.4829 0C60.0885 0 53.2829 6.8056 53.2829 15.2C53.2829 23.5944 60.0885 30.4 68.4829 30.4H90.8829C92.4581 30.4 93.9773 30.16 95.4061 29.7152L99.6829 32L104.297 23.3568C105.469 21.1565 106.083 18.7018 106.083 16.2088V15.2C106.083 6.8056 99.2773 0 90.8829 0H68.4829ZM98.0829 15.2C98.0829 13.2904 97.3243 11.4591 95.9741 10.1088C94.6238 8.75857 92.7925 8 90.8829 8H68.4829C67.5374 8 66.6011 8.18623 65.7276 8.54807C64.854 8.9099 64.0603 9.44025 63.3917 10.1088C62.7232 10.7774 62.1928 11.5711 61.831 12.4447C61.4691 13.3182 61.2829 14.2545 61.2829 15.2C61.2829 16.1455 61.4691 17.0818 61.831 17.9553C62.1928 18.8289 62.7232 19.6226 63.3917 20.2912C64.0603 20.9598 64.854 21.4901 65.7276 21.8519C66.6011 22.2138 67.5374 22.4 68.4829 22.4H90.8829C92.7828 22.4001 94.6057 21.6492 95.9544 20.311C97.303 18.9728 98.0681 17.1558 98.0829 15.256V15.2Z" fill="#283841"/>
<path d="M141.283 2C141.283 2.53043 141.072 3.03914 140.697 3.41421C140.322 3.78929 139.813 4 139.283 4C138.752 4 138.244 3.78929 137.869 3.41421C137.493 3.03914 137.283 2.53043 137.283 2C137.283 1.46957 137.493 0.960859 137.869 0.585786C138.244 0.210714 138.752 0 139.283 0C139.813 0 140.322 0.210714 140.697 0.585786C141.072 0.960859 141.283 1.46957 141.283 2Z" fill="#283841"/>
</g>
<defs>
<clipPath id="clip0_4122_5659">
<rect width="140.8" height="32" fill="white" transform="translate(0.48291)"/>
</clipPath>
</defs>
</svg>
