<svg width="136" height="32" viewBox="0 0 136 32" fill="none" xmlns="http://www.w3.org/2000/svg">
<g clip-path="url(#clip0_4122_5665)">
<path fill-rule="evenodd" clip-rule="evenodd" d="M8.29455 2V32H0.282715V2H8.29455Z" fill="#283841"/>
<path fill-rule="evenodd" clip-rule="evenodd" d="M12.3003 2H29.3255C34.8565 2 39.3403 6.47715 39.3403 12C39.3403 17.5229 34.8565 22 29.3255 22H20.3121V32H12.3003V2ZM20.3121 14H29.3255C30.4317 14 31.3285 13.1046 31.3285 12C31.3285 10.8954 30.4317 10 29.3255 10H20.3121V14Z" fill="#283841"/>
<path fill-rule="evenodd" clip-rule="evenodd" d="M69.3849 2V17.5C69.3849 21.0898 72.2993 24 75.8945 24C79.4897 24 82.4042 21.0898 82.4042 17.5V2H90.4162V17.5C90.4162 25.5082 83.9146 32 75.8945 32C67.8745 32 61.373 25.5082 61.373 17.5V2H69.3849Z" fill="#283841"/>
<path fill-rule="evenodd" clip-rule="evenodd" d="M42.3448 16C42.3448 8.268 48.6221 2 56.3656 2H58.3685V10H56.3656C53.0469 10 50.3567 12.6863 50.3567 16V17C50.3567 25.2842 43.631 32 35.3344 32H34.333V24H35.3344C39.2062 24 42.3448 20.866 42.3448 17V16Z" fill="#283841"/>
<path d="M135.483 3C135.483 4.65686 134.138 6 132.478 6C130.819 6 129.474 4.65686 129.474 3C129.474 1.34314 130.819 0 132.478 0C134.138 0 135.483 1.34314 135.483 3Z" fill="#283841"/>
<path d="M99.0185 32.0007L102.842 16.0152L105.684 25.6321C107.379 31.368 115.515 31.368 117.211 25.6321L120.052 16.0152L123.875 32.0007H132.112L126.101 6.86428C124.671 0.886641 116.235 0.665314 114.493 6.55982L111.447 16.8673L108.401 6.55983C106.659 0.665348 98.2225 0.886609 96.7929 6.86427L90.7817 32.0007H99.0185Z" fill="#283841"/>
</g>
<defs>
<clipPath id="clip0_4122_5665">
<rect width="135.2" height="32" fill="white" transform="translate(0.282715)"/>
</clipPath>
</defs>
</svg>
