<svg width="177" height="32" viewBox="0 0 177 32" fill="none" xmlns="http://www.w3.org/2000/svg">
<g clip-path="url(#clip0_4122_5662)">
<path d="M16.2826 32C25.1194 32 32.2826 24.8368 32.2826 16V4.8C32.2826 3.52696 31.7768 2.30606 30.8767 1.40589C29.9765 0.505713 28.7556 0 27.4826 0L17.0826 0V7.0192C17.0826 8.6208 17.1802 10.28 18.0202 11.6432C18.6215 12.6202 19.426 13.4564 20.3789 14.095C21.3319 14.7337 22.4111 15.1599 23.5434 15.3448L23.8498 15.3944C23.9761 15.4376 24.0857 15.5192 24.1634 15.6278C24.241 15.7364 24.2828 15.8665 24.2828 16C24.2828 16.1335 24.241 16.2636 24.1634 16.3722C24.0857 16.4808 23.9761 16.5624 23.8498 16.6056L23.5434 16.6552C21.8891 16.9254 20.3615 17.7085 19.1763 18.8937C17.991 20.0789 17.208 21.6065 16.9378 23.2608L16.8882 23.5672C16.845 23.6935 16.7634 23.8032 16.6548 23.8808C16.5462 23.9585 16.416 24.0002 16.2826 24.0002C16.1491 24.0002 16.0189 23.9585 15.9103 23.8808C15.8017 23.8032 15.7201 23.6935 15.677 23.5672L15.6274 23.2608C15.4425 22.1286 15.0162 21.0494 14.3775 20.0964C13.7389 19.1435 12.9027 18.339 11.9258 17.7376C10.5626 16.8976 8.90336 16.8 7.30176 16.8H0.301758C0.720158 25.2648 7.71456 32 16.2826 32Z" fill="#0E1534"/>
<path d="M0.282715 15.2H7.30192C8.90351 15.2 10.5627 15.1024 11.9259 14.2624C12.9915 13.6058 13.8886 12.7088 14.5451 11.6432C15.3851 10.28 15.4827 8.6208 15.4827 7.0192V0H5.08272C3.80968 0 2.58878 0.505713 1.6886 1.40589C0.788428 2.30606 0.282715 3.52696 0.282715 4.8L0.282715 15.2ZM37.4467 1.6C37.4467 2.02435 37.2781 2.43131 36.9781 2.73137C36.678 3.03143 36.2711 3.2 35.8467 3.2C35.4224 3.2 35.0154 3.03143 34.7153 2.73137C34.4153 2.43131 34.2467 2.02435 34.2467 1.6C34.2467 1.17565 34.4153 0.768687 34.7153 0.468629C35.0154 0.168571 35.4224 0 35.8467 0C36.2711 0 36.678 0.168571 36.9781 0.468629C37.2781 0.768687 37.4467 1.17565 37.4467 1.6ZM169.652 9.6832C174.124 9.6832 176.283 12.8072 176.283 16.4256V23.2216H171.602V17.232C171.602 15.592 171.004 14.2384 169.288 14.2384C167.572 14.2384 167 15.592 167 17.232V23.2208H162.319V17.232C162.319 15.592 161.747 14.2384 160.03 14.2384C158.314 14.2384 157.716 15.592 157.716 17.232V23.2208H153.036V16.4248C153.036 12.8064 155.193 9.6824 159.666 9.6824C162.111 9.6824 163.879 10.6456 164.685 12.2336C165.543 10.6456 167.416 9.6816 169.652 9.6816V9.6832ZM144.624 19.056C146.132 19.056 146.783 17.676 146.783 16.0352V10.2032H151.463V16.608C151.463 20.4352 149.227 23.612 144.624 23.612C140.021 23.612 137.785 20.436 137.785 16.608V10.2032H142.466V16.0352C142.466 17.6752 143.116 19.056 144.624 19.056ZM130.903 23.6376C127.964 23.6376 126.066 22.6224 124.948 20.644L128.328 18.7432C128.796 19.576 129.498 19.9928 130.668 19.9928C131.631 19.9928 132.072 19.6544 132.072 19.2376C132.072 17.6496 125.208 19.264 125.208 14.2136C125.208 11.7656 127.288 9.7872 130.824 9.7872C133.919 9.7872 135.609 11.2968 136.364 12.7552L132.983 14.6816C132.697 13.9008 131.812 13.432 130.928 13.432C130.252 13.432 129.888 13.7184 129.888 14.1088C129.888 15.7232 136.753 14.2392 136.753 19.1336C136.753 21.8672 134.075 23.6376 130.903 23.6376ZM114.549 29.2096H109.868V16.6864C109.868 12.7024 112.859 9.8128 117.02 9.8128C121.076 9.8128 124.171 12.9112 124.171 16.6864C124.171 20.852 121.414 23.612 117.28 23.612C116.317 23.612 115.356 23.3256 114.549 22.8824V29.2096ZM117.02 19.212C118.502 19.212 119.49 18.0664 119.49 16.712C119.49 15.3328 118.502 14.2128 117.02 14.2128C115.537 14.2128 114.549 15.3328 114.549 16.7128C114.549 18.0664 115.537 19.212 117.02 19.212ZM105.18 8.824C103.645 8.824 102.372 7.548 102.372 6.012C102.372 4.476 103.645 3.2 105.18 3.2C106.714 3.2 107.988 4.476 107.988 6.012C107.988 7.548 106.714 8.824 105.18 8.824ZM102.84 10.2032H107.52V23.2216H102.84V10.2032ZM93.8587 23.612C89.8019 23.612 86.7075 20.488 86.7075 16.6864C86.7075 12.9112 89.8019 9.7872 93.8587 9.7872C97.9155 9.7872 101.01 12.9112 101.01 16.6864C101.01 20.488 97.9155 23.612 93.8587 23.612ZM93.8587 19.212C95.3411 19.212 96.3291 18.0664 96.3291 16.712C96.3291 15.3328 95.3411 14.1872 93.8587 14.1872C92.3763 14.1872 91.3883 15.3328 91.3883 16.712C91.3883 18.0664 92.3763 19.212 93.8587 19.212ZM77.8691 29.6C74.6451 29.6 72.3043 28.168 71.1083 25.616L74.9827 23.5336C75.3987 24.4192 76.1787 25.3304 77.7907 25.3304C79.4819 25.3304 80.5995 24.2624 80.7299 22.388C80.1059 22.9352 79.1171 23.3512 77.6355 23.3512C74.0203 23.3512 71.1075 20.5656 71.1075 16.66C71.1075 12.8856 74.2027 9.8128 78.2595 9.8128C82.4203 9.8128 85.4107 12.7032 85.4107 16.6864V21.8416C85.4107 26.528 82.1595 29.6 77.8691 29.6ZM78.1811 18.952C79.5851 18.952 80.6515 17.988 80.6515 16.556C80.6515 15.1504 79.5859 14.2128 78.1811 14.2128C76.8027 14.2128 75.7107 15.1504 75.7107 16.5568C75.7107 17.9888 76.8027 18.9512 78.1811 18.9512V18.952ZM63.1683 23.612C59.1115 23.612 56.0163 20.488 56.0163 16.6864C56.0163 12.9112 59.1115 9.7872 63.1683 9.7872C67.2243 9.7872 70.3195 12.9112 70.3195 16.6864C70.3195 20.488 67.2251 23.612 63.1683 23.612ZM63.1683 19.212C64.6507 19.212 65.6387 18.0664 65.6387 16.712C65.6387 15.3328 64.6507 14.1872 63.1683 14.1872C61.6859 14.1872 60.6979 15.3328 60.6979 16.712C60.6979 18.0664 61.6859 19.212 63.1683 19.212ZM47.4931 5.648V18.7952H55.2427V23.2216H46.8427C43.8787 23.2216 42.6827 21.6592 42.6827 19.1856V5.648H47.4931Z" fill="#0E1534"/>
</g>
<defs>
<clipPath id="clip0_4122_5662">
<rect width="176" height="32" fill="white" transform="translate(0.282715)"/>
</clipPath>
</defs>
</svg>
