<svg width="101" height="32" viewBox="0 0 101 32" fill="none" xmlns="http://www.w3.org/2000/svg">
<g clip-path="url(#clip0_4122_5672)">
<path d="M71.5718 29.7792C72.179 29.7792 72.5382 29.3192 72.5382 28.6C72.5382 27.8544 72.1526 27.4208 71.5846 27.4208C71.2598 27.4208 71.0342 27.5648 70.8654 27.7936H70.8574V26.6152H70.5054V29.7136H70.8574V29.4192H70.8654C71.0478 29.6704 71.2686 29.7792 71.5718 29.7792ZM71.5462 29.484C71.0694 29.484 70.835 29.1072 70.835 28.604C70.835 28.1192 71.0606 27.72 71.5502 27.72C71.975 27.72 72.179 28.1016 72.179 28.604C72.179 29.1112 71.975 29.484 71.5462 29.484ZM73.1326 30.4552C73.4054 30.4552 73.579 30.3592 73.7606 29.8952L74.719 27.4728H74.3462L73.8342 28.8688C73.7654 29.0552 73.687 29.3064 73.687 29.3064H73.679C73.679 29.3064 73.5958 29.0552 73.527 28.8688L72.9982 27.4728H72.6166L73.4918 29.6488L73.4054 29.8696C73.319 30.0864 73.219 30.1432 73.0718 30.1432C72.9895 30.1474 72.9076 30.1309 72.8334 30.0952H72.8158V30.4072C72.9118 30.4464 72.9982 30.4552 73.1326 30.4552ZM75.6174 29.7136H76.207V26.6152H75.6174V29.7136ZM77.6486 29.7792C78.3374 29.7792 78.8102 29.2672 78.8102 28.604C78.8102 27.9408 78.3382 27.4296 77.6486 27.4296C76.9598 27.4296 76.487 27.9416 76.487 28.604C76.487 29.268 76.959 29.7792 77.6486 29.7792ZM77.6486 29.328C77.2846 29.328 77.0854 29.0376 77.0854 28.604C77.0854 28.1712 77.2846 27.876 77.6486 27.876C78.0086 27.876 78.2118 28.1712 78.2118 28.604C78.2118 29.0376 78.0086 29.328 77.6486 29.328ZM80.0638 30.472C80.3934 30.472 80.679 30.3944 80.8654 30.2208C81.0302 30.0688 81.1302 29.8568 81.1302 29.5448V27.4904H80.5622V27.7248H80.5534C80.419 27.5384 80.2158 27.4296 79.9374 27.4296C79.375 27.4296 78.9758 27.8544 78.9758 28.5176C78.9758 29.1896 79.4614 29.5792 79.9558 29.5792C80.2374 29.5792 80.4062 29.4672 80.5358 29.3192H80.5494V29.5624C80.5494 29.8656 80.3894 30.0264 80.055 30.0264C79.7822 30.0264 79.6566 29.9176 79.6086 29.7784H79.0238C79.0838 30.212 79.4566 30.472 80.0638 30.472ZM80.0558 29.1072C79.7518 29.1072 79.5518 28.8864 79.5518 28.5088C79.5518 28.136 79.7518 27.9024 80.051 27.9024C80.4062 27.9024 80.5798 28.1792 80.5798 28.5048C80.5798 28.8344 80.4278 29.1072 80.055 29.1072H80.0558ZM82.563 29.7792C83.2518 29.7792 83.7246 29.2672 83.7246 28.604C83.7246 27.9408 83.2518 27.4296 82.563 27.4296C81.8734 27.4296 81.4014 27.9416 81.4014 28.604C81.4014 29.268 81.8734 29.7792 82.563 29.7792ZM82.563 29.328C82.199 29.328 81.999 29.0376 81.999 28.604C81.999 28.1712 82.199 27.876 82.563 27.876C82.9222 27.876 83.1262 28.1712 83.1262 28.604C83.1262 29.0376 82.9222 29.328 82.563 29.328ZM83.9982 29.7136H84.5878V27.4904H83.9982V29.7136ZM83.9982 27.144H84.5878V26.6152H83.9982V27.144ZM84.9678 30.4416H85.5574V29.4632H85.5654C85.6918 29.6544 85.895 29.78 86.207 29.78C86.779 29.78 87.1694 29.324 87.1694 28.6048C87.1694 27.9112 86.7926 27.4304 86.203 27.4304C86.0744 27.4283 85.9474 27.4582 85.8332 27.5172C85.719 27.5763 85.6212 27.6627 85.5486 27.7688H85.5358V27.4912H84.9678V30.4432V30.4416ZM86.0814 29.2896C85.7302 29.2896 85.5438 29.0248 85.5438 28.6216C85.5438 28.2232 85.6918 27.9064 86.0598 27.9064C86.4238 27.9064 86.571 28.2008 86.571 28.6216C86.571 29.0424 86.3806 29.2896 86.0814 29.2896ZM88.3454 29.7792C88.8998 29.7792 89.2814 29.5104 89.2814 29.064C89.2814 28.544 88.8694 28.44 88.4966 28.3616C88.1806 28.2968 87.8862 28.2792 87.8862 28.0888C87.8862 27.9288 88.0374 27.8408 88.267 27.8408C88.519 27.8408 88.6702 27.9288 88.6966 28.1664H89.2294C89.1862 27.72 88.8614 27.4304 88.2758 27.4304C87.7686 27.4304 87.3702 27.6592 87.3702 28.1408C87.3702 28.6256 87.7598 28.7344 88.159 28.8128C88.4622 28.8728 88.7438 28.8944 88.7438 29.1072C88.7438 29.2632 88.5966 29.3632 88.3366 29.3632C88.0726 29.3632 87.8902 29.2504 87.851 28.9944H87.3054C87.3398 29.4664 87.6998 29.7792 88.3454 29.7792ZM91.5198 29.7136V27.4904H90.9302V28.7736C90.9302 29.068 90.7606 29.276 90.4838 29.276C90.2326 29.276 90.115 29.1328 90.115 28.8728V27.4904H89.5302V28.9728C89.5302 29.4584 89.8078 29.7744 90.3014 29.7744C90.6134 29.7744 90.787 29.6576 90.939 29.4544H90.9518V29.7136H91.5198ZM91.9006 29.7136H92.4902V28.4232C92.4902 28.128 92.6502 27.9376 92.8886 27.9376C93.1054 27.9376 93.231 28.068 93.231 28.3192V29.7144H93.8206V28.4232C93.8206 28.128 93.9726 27.9376 94.2198 27.9376C94.4366 27.9376 94.5622 28.068 94.5622 28.3192V29.7144H95.1518V28.2192C95.1518 27.7336 94.887 27.4304 94.419 27.4304C94.1374 27.4304 93.903 27.5776 93.7518 27.8208H93.743C93.6896 27.7027 93.6028 27.6029 93.4934 27.5335C93.3839 27.4641 93.2565 27.4283 93.127 27.4304C92.997 27.4272 92.8685 27.4589 92.755 27.5222C92.6414 27.5855 92.5469 27.6781 92.4814 27.7904H92.4686V27.4912H91.9006V29.7152V29.7136Z" fill="#E5708C"/>
<path d="M95.2679 1.71896C95.2679 0.772555 96.0351 0.00455547 96.9815 0.00455547H98.1247C98.5794 0.00455547 99.0154 0.185179 99.3369 0.506692C99.6585 0.828204 99.8391 1.26427 99.8391 1.71896C99.8391 2.17364 99.6585 2.60971 99.3369 2.93122C99.0154 3.25273 98.5794 3.43336 98.1247 3.43336H96.9815C96.7564 3.43336 96.5335 3.38901 96.3255 3.30284C96.1176 3.21667 95.9286 3.09038 95.7695 2.93117C95.6104 2.77196 95.4842 2.58296 95.3981 2.37497C95.312 2.16697 95.2678 1.94406 95.2679 1.71896ZM47.2751 11.4318C47.2751 17.7422 42.1599 22.8582 35.8487 22.8582C29.5383 22.8582 24.4223 17.7422 24.4223 11.4318C24.4223 5.11976 29.5383 0.00535547 35.8487 0.00535547C42.1599 0.00535547 47.2751 5.11976 47.2751 11.4318ZM22.1935 11.375C22.8255 11.375 23.3423 11.887 23.2791 12.5158C23.0631 14.6676 22.2409 16.714 20.9079 18.4171C19.575 20.1201 17.7862 21.41 15.7492 22.1367C13.7123 22.8634 11.511 22.9971 9.40108 22.5222C7.29118 22.0474 5.35935 20.9836 3.83012 19.4543C2.30088 17.9251 1.23703 15.9933 0.762202 13.8834C0.287378 11.7735 0.421079 9.57212 1.14777 7.5352C1.87446 5.49827 3.16429 3.7094 4.86736 2.37648C6.57044 1.04356 8.61682 0.221335 10.7687 0.00535547C11.3967 -0.0586445 11.9095 0.459756 11.9095 1.09016V10.2318C11.9095 10.8638 12.4215 11.375 13.0527 11.375H22.1935ZM63.2727 25.1438C64.1818 25.1438 65.0538 25.5049 65.6966 26.1478C66.3395 26.7907 66.7007 27.6626 66.7007 28.5718C66.7007 29.4809 66.3395 30.3528 65.6966 30.9957C65.0538 31.6386 64.1818 31.9998 63.2727 31.9998H57.5599C56.6507 31.9998 55.7788 31.6386 55.1359 30.9957C54.493 30.3528 54.1319 29.4809 54.1319 28.5718C54.1319 27.6626 54.493 26.7907 55.1359 26.1478C55.7788 25.5049 56.6507 25.1438 57.5599 25.1438H63.2727ZM59.8447 22.8582C66.1559 22.8582 71.2719 17.7422 71.2719 11.4318C71.2746 9.49331 70.782 7.58633 69.8407 5.89176L71.7287 4.00376C71.9461 3.78618 72.1186 3.5279 72.2363 3.24367C72.3539 2.95944 72.4145 2.65481 72.4144 2.34719C72.4143 2.03957 72.3536 1.73497 72.2359 1.4508C72.1181 1.16662 71.9454 0.908424 71.7279 0.690955C71.5103 0.473486 71.252 0.301001 70.9678 0.183348C70.6836 0.0656949 70.3789 0.00517779 70.0713 0.00525208C69.7637 0.00532637 69.4591 0.0659906 69.1749 0.183781C68.8907 0.301571 68.6325 0.474181 68.4151 0.691755L66.7671 2.33976C64.7789 0.82128 62.3456 0.00053001 59.8439 0.00455547C53.5343 0.00535547 48.4191 5.11976 48.4191 11.4318C48.4191 17.7422 53.5343 22.8582 59.8447 22.8582ZM95.2679 11.4318C95.2679 17.7422 90.1519 22.8582 83.8407 22.8582C77.5303 22.8582 72.4143 17.7422 72.4143 11.4318C72.4143 5.11976 77.5303 0.00535547 83.8407 0.00535547C90.1519 0.00535547 95.2679 5.12056 95.2679 11.4318Z" fill="url(#paint0_linear_4122_5672)"/>
</g>
<defs>
<linearGradient id="paint0_linear_4122_5672" x1="0.483077" y1="12.7998" x2="95.6831" y2="12.7998" gradientUnits="userSpaceOnUse">
<stop stop-color="#64C2DB"/>
<stop offset="0.307" stop-color="#7476ED"/>
<stop offset="0.604" stop-color="#C994DF"/>
<stop offset="1" stop-color="#E56F8C"/>
</linearGradient>
<clipPath id="clip0_4122_5672">
<rect width="100" height="32" fill="white" transform="translate(0.48291)"/>
</clipPath>
</defs>
</svg>
