<svg width="18" height="17" viewBox="0 0 18 17" fill="none" xmlns="http://www.w3.org/2000/svg">
<g clip-path="url(#clip0_4361_3596)">
<path d="M9 9.45924C6.65666 9.45924 4.75 7.65986 4.75 5.44837C4.75 3.23688 6.65666 1.4375 9 1.4375C11.3433 1.4375 13.25 3.23688 13.25 5.44837C13.25 7.65986 11.3433 9.45924 9 9.45924ZM9 2.44022C7.24209 2.44022 5.8125 3.78937 5.8125 5.44837C5.8125 7.10737 7.24209 8.45652 9 8.45652C10.7579 8.45652 12.1875 7.10737 12.1875 5.44837C12.1875 3.78937 10.7579 2.44022 9 2.44022Z" fill="black" fill-opacity="0.54"/>
<path d="M9.2125 7.55321H8.7875C8.48973 7.5521 8.20023 7.46065 7.96175 7.29237C7.72327 7.12409 7.54845 6.8879 7.46309 6.61868C7.44156 6.55505 7.43372 6.488 7.44003 6.42147C7.44633 6.35494 7.46667 6.29027 7.49983 6.23126C7.53298 6.17225 7.57831 6.12009 7.63312 6.07784C7.68794 6.03559 7.75115 6.0041 7.81905 5.98523C7.88694 5.96635 7.95814 5.96047 8.02848 5.96793C8.09881 5.97539 8.16686 5.99603 8.22862 6.02866C8.29038 6.06128 8.34462 6.10522 8.38813 6.1579C8.43165 6.21057 8.46357 6.27093 8.48203 6.33541C8.52187 6.46225 8.64778 6.55099 8.7875 6.55099H9.2125C9.29711 6.55099 9.37825 6.51928 9.43808 6.46281C9.49791 6.40635 9.53152 6.32978 9.53152 6.24993C9.53152 6.17008 9.49791 6.0935 9.43808 6.03704C9.37825 5.98058 9.29711 5.94886 9.2125 5.94886H8.7875C8.02569 5.94886 7.40625 5.36378 7.40625 4.64533C7.40625 3.92688 8.02569 3.3418 8.7875 3.3418H9.2125C9.80803 3.3418 10.334 3.69977 10.5226 4.23321C10.5457 4.29591 10.5554 4.36233 10.5512 4.4286C10.5469 4.49488 10.5287 4.5597 10.4977 4.61929C10.4667 4.67888 10.4234 4.73207 10.3704 4.77575C10.3174 4.81944 10.2558 4.85276 10.1891 4.87377C10.1223 4.89479 10.0518 4.90309 9.98165 4.89818C9.91149 4.89328 9.84305 4.87527 9.78033 4.8452C9.7176 4.81513 9.66182 4.7736 9.61623 4.72303C9.57065 4.67245 9.53616 4.61383 9.51478 4.55057C9.49384 4.49054 9.45333 4.43829 9.39905 4.40129C9.34476 4.36428 9.27947 4.34441 9.2125 4.34451H8.7875C8.70296 4.34451 8.62189 4.37621 8.56211 4.43262C8.50233 4.48904 8.46875 4.56555 8.46875 4.64533C8.46875 4.72511 8.50233 4.80162 8.56211 4.85804C8.62189 4.91445 8.70296 4.94614 8.7875 4.94614H9.2125C9.97431 4.94614 10.5938 5.53123 10.5938 6.24968C10.5938 6.96813 9.97431 7.55321 9.2125 7.55321Z" fill="black" fill-opacity="0.54"/>
<path d="M9 3.94372C8.85603 3.94372 8.72322 3.88857 8.62281 3.79832C8.60156 3.77325 8.575 3.74819 8.55906 3.7181C8.538 3.69253 8.52182 3.66369 8.51125 3.63287C8.49597 3.60439 8.48506 3.57401 8.47884 3.54263C8.47406 3.50753 8.46875 3.47745 8.46875 3.44236C8.46875 3.312 8.52666 3.18165 8.62281 3.08639C8.81938 2.90089 9.17531 2.90089 9.37719 3.08639C9.47281 3.18165 9.53125 3.312 9.53125 3.44236C9.53125 3.47745 9.52594 3.50753 9.52009 3.54263C9.51456 3.5741 9.5038 3.60456 9.48822 3.63287C9.47744 3.6636 9.46128 3.69241 9.44041 3.7181C9.41916 3.74819 9.39791 3.77325 9.37666 3.79832C9.27625 3.88857 9.13813 3.94372 9 3.94372ZM9 7.95459C8.85603 7.95459 8.72322 7.89944 8.62281 7.80919C8.60156 7.78412 8.575 7.75906 8.55906 7.72897C8.538 7.7034 8.52182 7.67456 8.51125 7.64374C8.49597 7.61526 8.48506 7.58488 8.47884 7.5535C8.47406 7.5184 8.46875 7.48832 8.46875 7.45323C8.46875 7.32287 8.52666 7.19252 8.62281 7.09726C8.81938 6.91176 9.17531 6.91176 9.37719 7.09726C9.47281 7.19252 9.53125 7.32287 9.53125 7.45323C9.53125 7.48832 9.52594 7.5184 9.52009 7.5535C9.51456 7.58497 9.5038 7.61543 9.48822 7.64374C9.47744 7.67448 9.46128 7.70328 9.44041 7.72897C9.41916 7.75906 9.39791 7.78412 9.37666 7.80919C9.27625 7.89944 9.13813 7.95459 9 7.95459ZM10.0625 16.4777H1.5625C1.4216 16.4777 1.28648 16.4249 1.18685 16.3308C1.08722 16.2368 1.03125 16.1093 1.03125 15.9763V11.4641C1.03125 11.3312 1.08703 11.2034 1.18691 11.1096C1.31122 10.9918 2.44066 9.96002 3.6875 9.96002C4.72025 9.96002 6.05263 10.6965 6.50047 10.9627H9C9.23253 10.9631 9.46218 11.0114 9.67286 11.1042C9.88355 11.1971 10.0702 11.3322 10.2197 11.5003C10.3693 11.6684 10.4781 11.8652 10.5386 12.0771C10.599 12.289 10.6097 12.5108 10.5698 12.727L14.7619 11.0786C15.0041 10.9831 15.2675 10.9456 15.5287 10.9695C15.7899 10.9934 16.0408 11.0779 16.259 11.2154C16.4775 11.3525 16.6567 11.5386 16.7806 11.7569C16.9044 11.9753 16.9691 12.2192 16.9688 12.4668C16.9688 12.5545 16.9445 12.6406 16.8982 12.7166C16.852 12.7926 16.7855 12.8558 16.7052 12.9L10.3302 16.4095C10.2489 16.4541 10.1566 16.4777 10.0625 16.4777ZM2.09375 15.475H9.91853L15.8367 12.2171C15.7954 12.15 15.7383 12.0927 15.6698 12.0497C15.5974 12.0033 15.5138 11.9747 15.4266 11.9668C15.3394 11.9588 15.2515 11.9716 15.171 12.0041L10.2676 13.9323C10.2026 13.9578 10.1329 13.9709 10.0625 13.9709H5.8125C5.6716 13.9709 5.53648 13.9181 5.43685 13.824C5.33722 13.73 5.28125 13.6025 5.28125 13.4695C5.28125 13.3366 5.33722 13.209 5.43685 13.115C5.53648 13.021 5.6716 12.9682 5.8125 12.9682H9C9.13679 12.9624 9.26594 12.9071 9.36057 12.8137C9.4552 12.7203 9.50802 12.596 9.50802 12.4668C9.50802 12.3376 9.4552 12.2134 9.36057 12.12C9.26594 12.0266 9.13679 11.9712 9 11.9655H6.34375C6.23909 11.9655 6.13603 11.9359 6.04891 11.8817C5.6425 11.626 4.42434 10.9627 3.6875 10.9627C3.10844 10.9627 2.44066 11.4039 2.09375 11.6842V15.475Z" fill="black" fill-opacity="0.54"/>
</g>
<defs>
<clipPath id="clip0_4361_3596">
<rect width="17" height="16.0435" fill="white" transform="translate(0.5 0.935547)"/>
</clipPath>
</defs>
</svg>
