<svg width="18" height="13" viewBox="0 0 18 13" fill="none" xmlns="http://www.w3.org/2000/svg">
<path d="M13.5894 5.98022L13.7222 8.54736C13.7419 8.92106 13.5402 9.26767 13.1172 9.58721C12.6942 9.90676 12.1162 10.16 11.3832 10.3468C10.6503 10.5336 9.8559 10.6271 9 10.6271C8.1441 10.6271 7.34968 10.5336 6.61676 10.3468C5.88382 10.1599 5.30584 9.90675 4.88281 9.58721C4.45978 9.26767 4.2581 8.92106 4.27778 8.54736L4.41059 5.98022L8.64584 7.45064C8.75405 7.48855 8.8721 7.5075 9 7.5075C9.12789 7.5075 9.24595 7.48855 9.35416 7.45064L13.5894 5.98022ZM17.5 3.34809C17.5 3.47266 17.4459 3.5566 17.3377 3.59993L9.07379 6.45954C9.05411 6.46496 9.02952 6.46767 9 6.46767C8.97048 6.46767 8.94589 6.46496 8.92621 6.45954L4.11546 4.78603C3.90394 4.97017 3.72931 5.2721 3.59158 5.69184C3.45385 6.11157 3.37022 6.59494 3.34071 7.14194C3.6506 7.33691 3.80555 7.63208 3.80555 8.02744C3.80555 8.40114 3.6629 8.6909 3.37761 8.8967L3.80554 12.4143C3.81538 12.4901 3.79571 12.5578 3.74652 12.6174C3.70225 12.677 3.64322 12.7068 3.56944 12.7068H2.15278C2.079 12.7068 2.01997 12.677 1.9757 12.6174C1.92651 12.5578 1.90683 12.4901 1.91666 12.4143L2.34461 8.89669C2.05932 8.69088 1.91667 8.40113 1.91667 8.02743C1.91667 7.63207 2.07654 7.33149 2.39627 7.12569C2.45037 6.0046 2.6914 5.11097 3.11936 4.44481L0.662325 3.59993C0.554108 3.55661 0.5 3.47267 0.5 3.34809C0.5 3.22352 0.554108 3.13957 0.662325 3.09625L8.92621 0.236642C8.94589 0.231224 8.97048 0.228516 9 0.228516C9.02952 0.228516 9.05411 0.231224 9.07379 0.236642L17.3377 3.09624C17.4459 3.13957 17.5 3.22352 17.5 3.34809Z" fill="black" fill-opacity="0.54"/>
</svg>
