<svg width="25" height="24" viewBox="0 0 25 24" fill="none" xmlns="http://www.w3.org/2000/svg">
<path d="M0.509766 24L2.23171 17.6031C0.843005 15.1112 0.401799 12.2033 0.989056 9.41309C1.57631 6.62288 3.15264 4.13748 5.42878 2.41298C7.70491 0.68848 10.5282 -0.159455 13.3805 0.0247736C16.2328 0.209002 18.9229 1.41304 20.9571 3.41594C22.9912 5.41883 24.233 8.08625 24.4546 10.9287C24.6762 13.7712 23.8627 16.598 22.1634 18.8904C20.4641 21.1829 17.993 22.7873 15.2035 23.4091C12.414 24.0309 9.49327 23.6285 6.97723 22.2757L0.509766 24ZM7.28908 19.8819L7.68906 20.1186C9.51148 21.196 11.64 21.6419 13.743 21.3867C15.846 21.1315 17.8053 20.1896 19.3156 18.7077C20.8258 17.2258 21.8022 15.2873 22.0926 13.1941C22.383 11.101 21.971 8.97077 20.9209 7.13553C19.8709 5.30028 18.2416 3.86306 16.2871 3.04784C14.3326 2.23262 12.1627 2.0852 10.1154 2.62854C8.06813 3.17188 6.25856 4.37546 4.96868 6.05173C3.6788 7.728 2.98107 9.78279 2.98421 11.8959C2.9825 13.648 3.4683 15.3662 4.38753 16.8593L4.63837 17.2717L3.6757 20.8421L7.28908 19.8819Z" fill="white"/>
<path fill-rule="evenodd" clip-rule="evenodd" d="M16.9972 13.5375C16.7628 13.3489 16.4882 13.2161 16.1945 13.1493C15.9008 13.0825 15.5957 13.0834 15.3024 13.1521C14.8617 13.3346 14.577 14.0244 14.2923 14.3692C14.2322 14.4519 14.144 14.5099 14.0442 14.5323C13.9443 14.5547 13.8397 14.54 13.7499 14.491C12.1367 13.8607 10.7844 12.7049 9.91285 11.2114C9.83851 11.1181 9.80332 10.9998 9.8147 10.8812C9.82608 10.7627 9.88314 10.6532 9.97386 10.5757C10.2914 10.2621 10.5246 9.87374 10.6518 9.44645C10.68 8.97515 10.5718 8.50568 10.3399 8.09404C10.1607 7.51694 9.81961 7.00307 9.35694 6.61315C9.11831 6.50609 8.85372 6.4702 8.5951 6.5098C8.33647 6.54939 8.09485 6.66278 7.89939 6.8363C7.56007 7.12831 7.29073 7.49253 7.11122 7.90213C6.93171 8.31172 6.8466 8.75627 6.86216 9.20302C6.8632 9.4539 6.89508 9.7037 6.95707 9.94685C7.11449 10.531 7.35658 11.0891 7.67567 11.6036C7.9059 11.9976 8.15709 12.3791 8.42818 12.7463C9.30918 13.9527 10.4166 14.9769 11.689 15.7622C12.3275 16.1613 13.01 16.4857 13.7228 16.7292C14.4633 17.064 15.2809 17.1925 16.0888 17.1011C16.5491 17.0316 16.9852 16.8503 17.3588 16.5732C17.7323 16.2962 18.0319 15.9317 18.2311 15.512C18.3481 15.2585 18.3836 14.975 18.3328 14.7006C18.2107 14.1393 17.4582 13.808 16.9972 13.5375Z" fill="white"/>
</svg>
